<?xml version="1.0" standalone="no"?>
<!DOCTYPE svg PUBLIC "-//W3C//DTD SVG 20010904//EN"
 "http://www.w3.org/TR/2001/REC-SVG-20010904/DTD/svg10.dtd">
<svg version="1.0" xmlns="http://www.w3.org/2000/svg"
 width="390.000000pt" height="383.000000pt" viewBox="0 0 390.000000 383.000000"
 preserveAspectRatio="xMidYMid meet">

<g transform="translate(0.000000,383.000000) scale(0.100000,-0.100000)"
fill="#000000" stroke="none">
<path d="M1790 3809 c-171 -9 -162 -7 -156 -18 3 -5 -29 -16 -72 -25 -42 -10
-100 -24 -128 -32 -28 -7 -62 -14 -77 -14 -14 0 -33 -7 -42 -16 -8 -9 -24 -14
-33 -12 -21 6 -48 -18 -29 -25 7 -3 3 -6 -8 -8 -11 -1 -33 -3 -50 -5 -16 -2
-38 -4 -47 -5 -10 0 -18 -7 -18 -15 0 -8 -7 -17 -15 -20 -12 -5 -13 -10 -4
-20 6 -8 8 -14 3 -15 -5 0 -17 -2 -26 -4 -10 -2 -18 0 -18 5 0 4 -10 10 -22
13 -23 6 -23 6 -3 -10 l20 -16 -20 8 c-32 12 -50 11 -48 -2 2 -7 -6 -13 -17
-13 -11 0 -29 -9 -41 -21 -20 -20 -20 -21 -2 -34 16 -12 13 -13 -28 -13 -43 1
-104 -26 -95 -41 8 -12 -8 -26 -39 -36 -16 -6 -35 -22 -42 -35 -7 -14 -13 -19
-13 -11 0 11 -3 11 -15 1 -13 -11 -13 -15 -3 -22 9 -6 5 -7 -9 -3 -17 5 -23 2
-23 -10 0 -9 -5 -13 -11 -10 -11 7 -40 -25 -33 -36 2 -4 -6 -15 -18 -25 -14
-12 -18 -14 -13 -4 5 8 -10 -1 -32 -20 -23 -19 -40 -41 -40 -49 1 -7 -7 -18
-18 -25 -20 -11 -35 -29 -37 -43 0 -5 -16 -23 -35 -40 -20 -19 -31 -38 -27
-44 4 -8 3 -9 -5 -5 -11 7 -50 -29 -51 -47 0 -9 -57 -93 -78 -115 -7 -8 -10
-17 -7 -22 3 -5 1 -12 -5 -15 -20 -12 -61 -86 -58 -103 2 -9 -5 -25 -15 -34
-10 -9 -30 -49 -44 -89 -14 -40 -31 -82 -38 -93 -7 -12 -16 -37 -20 -56 -4
-19 -11 -39 -15 -45 -4 -5 -13 -32 -19 -60 -46 -186 -53 -254 -49 -490 4 -165
9 -231 20 -265 9 -25 19 -67 23 -95 11 -88 127 -415 146 -415 5 0 9 -8 9 -17
0 -27 87 -188 101 -188 7 0 14 -6 17 -14 3 -9 0 -11 -9 -6 -13 8 17 -33 33
-45 4 -3 12 -18 17 -33 6 -16 15 -26 20 -22 6 3 22 -15 37 -40 14 -25 35 -50
45 -56 10 -5 19 -16 19 -24 0 -8 8 -20 18 -27 10 -7 21 -21 25 -31 3 -9 10
-17 14 -16 22 4 34 -4 48 -31 9 -18 23 -30 35 -30 12 0 22 -9 26 -24 4 -17 15
-27 35 -31 16 -4 27 -11 23 -16 -3 -5 -1 -9 3 -9 5 0 29 -18 53 -40 25 -22 53
-42 63 -45 9 -4 17 -12 17 -20 0 -7 15 -20 33 -30 17 -9 43 -23 57 -31 14 -7
35 -14 48 -14 13 0 22 -6 22 -15 0 -8 12 -17 28 -20 15 -4 34 -10 42 -15 50
-30 140 -69 173 -74 20 -4 37 -10 37 -14 0 -4 19 -8 42 -9 23 -2 46 -7 52 -13
5 -5 21 -10 34 -10 15 0 21 -4 16 -12 -5 -8 5 -9 34 -5 24 3 67 -1 99 -10 31
-8 68 -12 82 -8 17 4 21 3 12 -3 -20 -14 55 -22 219 -22 168 -1 244 5 320 21
30 7 74 13 98 13 23 1 42 5 42 9 0 5 4 6 9 2 5 -3 12 -1 16 5 3 5 22 10 41 10
19 0 34 4 34 9 0 6 20 13 45 17 27 4 42 10 38 17 -3 5 -2 7 3 4 12 -7 107 13
114 24 3 4 28 13 55 20 28 6 57 15 65 20 8 5 21 12 29 16 7 3 25 16 38 29 14
13 29 21 34 18 10 -6 47 14 69 37 8 9 20 14 27 12 7 -3 32 9 57 26 25 17 49
31 55 31 6 0 11 3 11 8 0 4 17 18 38 32 20 14 53 41 73 61 20 19 50 41 68 48
17 8 31 18 31 23 0 6 25 34 55 64 53 52 54 54 27 55 l-27 0 25 10 c13 6 28 15
32 22 6 9 8 9 8 0 0 -23 15 -14 35 20 10 17 26 39 35 47 9 8 15 20 13 26 -4
12 30 54 44 54 12 0 63 64 63 79 0 5 17 36 38 68 20 32 48 81 61 108 13 28 32
67 42 87 11 20 19 46 19 57 0 12 5 21 11 21 6 0 9 6 6 14 -3 8 5 34 19 59 13
26 24 55 24 66 0 11 5 23 10 26 6 4 8 11 5 16 -7 10 23 128 37 146 20 25 40
313 24 334 -9 11 -51 14 -201 13 -230 -1 -225 -1 -225 -18 0 -8 -5 -16 -10
-18 -6 -2 -12 -44 -15 -94 -5 -102 -1 -111 58 -123 24 -6 32 -12 30 -27 -10
-106 -35 -210 -56 -231 -4 -3 -7 -17 -7 -29 0 -30 -29 -104 -41 -104 -5 0 -9
-6 -9 -13 0 -12 -35 -82 -71 -141 -10 -17 -22 -38 -25 -46 -16 -41 -28 -60
-39 -60 -6 0 -18 -13 -28 -29 -21 -36 -49 -71 -99 -122 -21 -22 -34 -39 -30
-40 4 0 -3 -4 -15 -9 -13 -5 -23 -16 -23 -25 0 -8 -5 -15 -11 -15 -9 0 -64
-43 -136 -107 -14 -13 -29 -20 -34 -17 -5 3 -12 -2 -15 -10 -3 -9 -10 -13 -15
-10 -5 3 -9 1 -9 -4 0 -5 -35 -27 -77 -48 -43 -22 -80 -41 -83 -44 -15 -16
-63 -41 -68 -36 -3 3 -12 0 -21 -7 -21 -18 -101 -47 -128 -47 -12 0 -28 -6
-35 -13 -12 -12 -68 -27 -158 -41 -19 -3 -44 -8 -55 -10 -251 -49 -556 -50
-700 -2 -22 7 -50 14 -63 14 -12 0 -36 11 -54 23 -18 13 -44 22 -60 21 -15 -1
-28 2 -28 8 0 6 -12 15 -27 20 -34 12 -136 63 -143 71 -3 3 -32 20 -65 38 -32
18 -71 41 -86 52 -15 10 -30 19 -35 19 -4 0 -19 12 -33 28 -14 15 -38 34 -53
42 -15 8 -27 19 -27 23 0 5 -14 22 -32 38 -25 22 -35 26 -46 17 -11 -8 -12 -7
-7 6 5 12 -6 29 -35 58 -23 22 -40 43 -37 46 3 3 -3 11 -14 19 -11 8 -20 21
-20 29 0 8 -4 13 -10 9 -5 -3 -19 14 -31 37 -12 24 -35 58 -51 76 -16 19 -31
47 -35 63 -3 16 -9 29 -13 29 -5 0 -11 14 -15 30 -4 17 -12 36 -18 43 -20 22
-47 78 -69 142 -11 33 -24 65 -29 70 -9 12 -49 161 -49 184 0 8 -8 23 -18 34
-9 11 -11 17 -4 13 8 -5 12 0 12 14 0 12 -4 18 -10 15 -5 -3 -10 -1 -10 4 0 6
4 11 9 11 4 0 4 23 -1 52 -8 42 -7 124 2 183 1 6 -1 27 -5 48 -4 23 -2 37 4
37 6 0 11 14 11 30 0 17 -5 30 -11 30 -8 0 -7 5 1 15 7 9 16 32 20 53 5 20 15
62 23 92 8 30 17 71 21 90 3 19 20 62 36 95 16 33 30 75 30 93 0 17 5 32 10
32 6 0 10 5 10 10 0 6 8 18 18 28 31 34 57 75 55 90 -1 8 4 21 10 28 31 35 37
44 37 59 0 17 34 55 50 55 5 0 16 13 25 30 8 16 29 40 45 52 17 12 39 37 50
55 11 18 26 33 33 33 8 0 27 16 42 36 16 21 33 33 41 30 8 -3 14 -2 14 2 0 17
41 51 55 46 9 -4 15 0 15 9 0 9 9 19 20 22 11 4 18 11 15 16 -4 5 4 8 16 6 13
-1 26 6 33 18 15 27 26 34 44 27 10 -3 13 -1 8 6 -4 7 -1 12 7 12 7 0 23 9 35
20 12 11 28 20 37 20 8 0 15 4 15 8 0 5 18 17 40 27 22 10 40 21 40 25 0 4 10
10 23 13 53 13 99 35 86 41 -8 3 -5 4 6 1 28 -7 188 29 178 39 -4 5 9 6 30 2
28 -5 37 -4 35 6 -4 16 26 18 292 22 113 1 223 -2 245 -7 22 -5 63 -10 90 -12
28 -2 58 -3 68 -4 10 -1 16 -5 13 -10 -3 -5 9 -11 27 -15 44 -8 66 -13 107
-25 19 -5 46 -13 60 -17 14 -4 34 -17 46 -30 11 -12 31 -26 45 -29 13 -3 49
-22 79 -41 30 -19 69 -41 87 -49 17 -8 34 -19 38 -24 9 -15 90 -68 117 -76 45
-15 80 -7 104 22 13 15 23 35 24 44 0 14 40 60 40 46 0 -14 52 47 56 66 2 11
8 23 13 27 18 10 6 36 -31 68 -19 18 -40 32 -45 32 -5 0 -20 11 -33 25 -13 14
-31 25 -41 25 -10 0 -30 10 -46 23 -43 35 -114 69 -135 64 -10 -3 -16 -2 -13
2 8 15 -89 66 -147 78 -65 13 -118 34 -118 45 0 4 -7 5 -15 2 -8 -4 -26 1 -40
10 -13 9 -38 16 -55 16 -16 0 -30 4 -30 8 0 15 -83 37 -135 36 -31 -1 -42 1
-30 6 16 6 14 8 -15 13 -33 6 -132 13 -275 21 -33 1 -121 -1 -195 -5z m300
-33 c0 -3 -4 -8 -10 -11 -5 -3 -10 -1 -10 4 0 6 5 11 10 11 6 0 10 -2 10 -4z
m-603 -42 c-3 -3 -12 -4 -19 -1 -8 3 -5 6 6 6 11 1 17 -2 13 -5z m150 0 c-3
-3 -12 -4 -19 -1 -8 3 -5 6 6 6 11 1 17 -2 13 -5z m403 -14 c0 -5 -2 -10 -4
-10 -3 0 -8 5 -11 10 -3 6 -1 10 4 10 6 0 11 -4 11 -10z m-135 -51 c0 -7 -8
-15 -17 -17 -12 -2 -15 2 -11 18 6 23 28 22 28 -1z m57 9 c3 -7 24 -11 54 -10
67 1 83 -4 77 -28 -6 -23 -23 -27 -23 -5 0 11 -12 15 -44 15 -63 0 -106 11
-106 26 0 17 37 19 42 2z m-662 -73 c0 -19 -4 -35 -9 -35 -7 0 -8 35 -3 63 5
20 12 3 12 -28z m580 -10 c0 -14 -4 -25 -10 -25 -5 0 -10 11 -10 25 0 14 5 25
10 25 6 0 10 -11 10 -25z m140 10 c0 -8 -7 -15 -15 -15 -8 0 -15 7 -15 15 0 8
7 15 15 15 8 0 15 -7 15 -15z m-30 -34 c0 -5 -7 -11 -15 -15 -26 -10 -16 -34
18 -42 l32 -8 -40 -7 c-22 -4 -47 -3 -55 2 -10 5 -11 8 -2 9 7 0 12 13 12 29
0 16 6 32 13 34 20 9 37 8 37 -2z m-990 -31 c0 -12 -28 -25 -36 -17 -9 9 6 27
22 27 8 0 14 -5 14 -10z m160 -46 c0 -8 -10 -14 -23 -14 -30 0 -40 10 -27 26
13 15 50 6 50 -12z m943 12 c4 -9 -2 -13 -16 -12 -11 1 -22 7 -25 14 -5 17 34
16 41 -2z m-1106 -2 c-3 -3 -12 -4 -19 -1 -8 3 -5 6 6 6 11 1 17 -2 13 -5z
m1230 -20 c-3 -3 -12 -4 -19 -1 -8 3 -5 6 6 6 11 1 17 -2 13 -5z m43 -4 c-20
-13 -33 -13 -25 0 3 6 14 10 23 10 15 0 15 -2 2 -10z m-1120 -166 c0 -17 -22
-14 -28 4 -2 7 3 12 12 12 9 0 16 -7 16 -16z m-64 -60 c-27 -19 -36 -18 -36 5
0 21 29 33 45 19 6 -6 3 -14 -9 -24z m-46 -18 c0 -3 -4 -8 -10 -11 -5 -3 -10
-1 -10 4 0 6 5 11 10 11 6 0 10 -2 10 -4z m-90 -70 c0 -11 -19 -15 -25 -6 -3
5 1 10 9 10 9 0 16 -2 16 -4z"/>
<path d="M785 3440 c-3 -5 -2 -10 4 -10 5 0 13 5 16 10 3 6 2 10 -4 10 -5 0
-13 -4 -16 -10z"/>
<path d="M1840 3335 c-8 -2 -63 -9 -122 -16 -60 -6 -108 -15 -108 -18 0 -3
-12 -7 -28 -7 -37 -2 -259 -83 -278 -101 -8 -9 -17 -13 -20 -10 -9 8 -102 -41
-172 -90 -46 -32 -60 -48 -53 -57 7 -8 5 -12 -9 -12 -10 0 -16 5 -13 10 28 44
-187 -158 -237 -223 -14 -18 -30 -38 -37 -45 -6 -7 -36 -51 -66 -97 -78 -120
-116 -205 -178 -397 -22 -70 -46 -253 -48 -373 -2 -105 21 -286 46 -364 35
-109 67 -200 73 -210 4 -5 25 -44 46 -85 21 -41 42 -79 46 -85 140 -187 253
-299 393 -390 152 -99 376 -195 565 -241 95 -24 424 -27 539 -5 84 15 246 61
306 86 147 61 257 120 335 182 117 92 165 136 245 228 33 37 65 73 70 79 11
11 77 115 113 176 88 151 183 541 155 635 -7 22 -7 35 -1 35 5 0 6 5 3 10 -5
8 -74 9 -213 5 -175 -5 -766 -14 -1019 -17 l-73 0 0 -92 c0 -50 3 -108 6 -128
6 -34 9 -38 38 -37 135 2 408 2 536 0 85 -1 175 2 200 8 24 5 47 7 50 3 3 -4
23 -7 45 -7 38 0 40 -1 39 -30 -2 -44 -52 -178 -90 -242 -19 -30 -31 -59 -28
-64 3 -5 -1 -9 -8 -9 -8 0 -21 -13 -31 -29 -24 -41 -122 -139 -192 -192 -147
-112 -325 -185 -550 -224 -423 -74 -903 121 -1114 453 -41 65 -96 176 -115
234 -45 134 -50 171 -51 348 0 164 2 181 29 275 16 55 40 117 53 137 12 21 23
42 23 48 0 5 5 10 11 10 6 0 9 9 6 20 -3 10 -2 18 2 17 3 -1 7 2 8 7 1 5 5 12
10 15 4 3 24 26 42 51 19 25 41 49 48 53 7 5 11 13 7 18 -3 5 -2 8 3 7 5 -2
41 30 81 70 40 40 77 70 82 67 6 -4 10 0 10 7 0 8 19 24 43 36 96 49 148 80
140 84 -4 3 -2 3 5 1 8 -1 41 8 75 21 300 117 559 115 872 -5 102 -40 146 -62
217 -110 32 -22 64 -39 72 -39 8 0 25 15 37 33 13 17 37 47 54 65 16 18 29 38
27 43 -1 6 2 8 7 5 5 -3 20 7 33 23 60 75 68 87 68 98 0 25 -171 139 -296 198
-113 53 -235 97 -251 91 -8 -3 -12 -2 -9 3 17 27 -411 75 -504 56z m-640 -205
c-8 -5 -19 -10 -25 -10 -5 0 -3 5 5 10 8 5 20 10 25 10 6 0 3 -5 -5 -10z"/>
<path d="M1780 2870 c-85 -15 -290 -91 -290 -108 0 -5 -18 -14 -39 -21 -51
-15 -128 -74 -218 -168 -71 -74 -143 -171 -147 -198 -1 -7 -8 -21 -16 -31 -12
-13 -12 -18 -2 -21 15 -6 16 -29 0 -39 -8 -5 -9 -2 -5 9 4 11 1 17 -7 17 -17
0 -70 -163 -71 -217 0 -22 -3 -37 -6 -31 -4 5 -9 -26 -13 -69 -8 -94 7 -244
35 -333 23 -76 96 -230 108 -230 5 0 12 -11 15 -24 7 -28 93 -126 108 -123 6
1 13 -5 15 -13 4 -13 3 -13 -6 0 -6 8 -11 10 -11 4 0 -21 179 -164 206 -164 7
0 14 -4 14 -8 0 -19 46 -30 75 -18 l30 13 -29 7 c-19 5 -32 3 -36 -4 -9 -15
-18 -1 -15 23 2 9 -1 15 -6 11 -5 -3 -9 0 -9 6 0 6 -4 9 -9 6 -5 -3 -11 1 -15
9 -4 12 -11 13 -32 5 -19 -8 -31 -7 -38 0 -7 7 -1 10 19 10 23 0 27 3 15 10
-8 5 -25 10 -37 10 -23 0 -32 15 -25 43 4 14 17 17 88 17 l83 0 40 -41 c23
-22 45 -38 51 -34 5 3 10 -1 10 -9 0 -8 4 -18 10 -21 6 -4 7 1 4 12 -5 16 -4
16 8 2 7 -9 21 -16 31 -16 16 0 16 2 1 18 -9 10 -25 21 -35 24 -13 4 -19 16
-19 36 0 26 3 29 30 29 17 0 30 5 30 10 0 7 6 7 19 0 11 -5 39 -10 63 -10 41
0 44 -2 60 -40 21 -51 35 -51 30 0 -4 36 -2 40 19 40 13 1 60 2 105 3 l81 2
-13 -45 c-7 -25 -17 -60 -22 -77 -10 -31 -9 -32 9 -22 12 6 18 17 15 25 -3 8
-2 13 2 10 5 -3 22 18 38 47 34 59 44 63 154 59 69 -3 82 -6 91 -24 10 -18 9
-20 -6 -15 -11 5 -15 3 -13 -5 6 -17 44 -16 40 0 -1 7 1 11 5 10 5 -2 8 2 9 7
0 14 46 22 126 24 56 1 69 -2 77 -18 10 -18 6 -31 -11 -31 -5 0 -6 5 -2 12 4
7 3 8 -5 4 -6 -4 -9 -12 -6 -17 4 -5 -1 -9 -10 -9 -22 0 -87 -45 -78 -54 4 -4
0 -4 -9 -1 -9 4 -18 0 -21 -9 -4 -9 -15 -16 -26 -16 -26 0 -52 -10 -47 -19 2
-3 -6 -7 -19 -7 -12 -1 -37 -8 -56 -16 -44 -20 -120 -37 -189 -43 -30 -3 -73
-7 -95 -9 -22 -3 -62 0 -90 6 -27 5 -85 10 -127 10 -50 0 -76 4 -72 10 4 6 -1
8 -14 4 -11 -4 -23 -2 -27 4 -4 6 -15 8 -26 5 -11 -4 -19 -2 -19 4 0 6 -12 10
-27 10 -21 -1 -23 -2 -8 -6 34 -8 44 -26 10 -19 l-30 6 25 -14 c16 -9 29 -11
36 -5 7 6 22 4 40 -6 16 -8 35 -15 42 -15 8 0 10 -5 6 -12 -5 -8 -2 -9 9 -5 9
3 19 2 21 -2 3 -5 29 -7 58 -5 37 3 49 1 38 -6 -12 -8 -11 -10 7 -10 12 0 23
5 25 10 2 7 21 4 52 -6 26 -9 51 -13 55 -8 3 5 46 9 94 10 65 0 91 4 97 14 6
9 4 18 -3 23 -8 6 -7 7 3 4 8 -2 14 -9 13 -15 -2 -7 11 -9 35 -5 47 7 51 11
28 29 -11 8 -15 14 -9 14 7 0 14 -4 17 -8 9 -14 70 -1 93 20 14 13 30 19 43
15 24 -6 38 12 19 24 -8 5 -9 9 -4 9 6 0 17 -5 25 -10 10 -6 20 -3 33 11 10
10 24 19 31 19 9 0 12 7 9 19 -3 13 2 23 16 30 17 10 20 9 15 -4 -4 -8 -10
-15 -16 -15 -5 0 -6 -5 -3 -10 4 -6 14 -1 25 12 11 13 19 19 20 14 0 -17 29
29 30 47 0 10 4 16 10 12 11 -7 51 14 63 33 4 6 15 12 24 12 9 0 13 6 10 15
-6 13 8 29 24 30 11 0 58 62 52 69 -3 3 -1 6 5 6 7 0 12 5 12 11 0 7 6 17 14
23 20 16 86 143 78 150 -3 4 -1 11 6 15 18 11 26 81 9 81 -16 0 -49 -54 -40
-64 4 -4 3 -10 -3 -14 -6 -4 -24 -32 -39 -62 -15 -30 -39 -73 -53 -95 -14 -22
-24 -41 -23 -43 1 -1 -12 -14 -28 -28 -20 -17 -28 -31 -24 -42 3 -9 3 -14 -2
-10 -4 4 -17 1 -29 -7 -13 -10 -45 -15 -88 -15 -38 0 -68 -4 -68 -10 0 -11
-32 -1 -42 14 -4 6 -2 16 4 23 8 11 7 12 -7 7 -12 -5 -16 -4 -12 3 4 6 1 14
-5 17 -7 3 -3 3 10 0 17 -4 22 -1 22 13 0 15 2 16 10 3 7 -10 10 -11 11 -2 3
27 4 31 12 38 4 4 7 16 7 26 0 10 6 17 13 15 7 -1 12 9 12 25 -1 14 2 25 6 23
10 -7 38 65 44 116 5 34 3 48 -8 58 -12 10 -18 8 -29 -8 -8 -12 -17 -19 -19
-16 -3 2 -6 -12 -6 -32 -1 -19 -5 -38 -11 -42 -5 -3 -15 -24 -22 -46 -7 -22
-28 -70 -46 -106 -26 -52 -30 -69 -21 -79 10 -10 8 -12 -5 -7 -11 4 -24 -2
-35 -16 -17 -21 -25 -22 -123 -19 -58 1 -109 7 -114 12 -5 5 -3 30 4 59 6 27
8 55 4 62 -4 7 -3 9 3 6 11 -7 33 92 33 147 0 15 5 37 11 48 9 16 8 23 -2 29
-28 18 -49 10 -50 -18 -1 -21 -2 -23 -6 -8 -9 38 -21 37 -26 -2 -4 -21 -9 -69
-12 -108 -8 -83 -11 -104 -27 -170 l-13 -50 -105 -3 c-122 -3 -155 8 -145 47
5 21 4 23 -9 12 -9 -8 -17 -10 -17 -5 -1 5 -4 -4 -8 -21 -5 -24 -11 -29 -31
-27 -13 1 -28 -3 -33 -10 -7 -10 -10 -10 -14 0 -6 14 -53 17 -53 2 0 -14 -30
-12 -83 6 -54 18 -57 22 -63 72 -3 20 -9 39 -14 40 -6 2 -8 8 -4 13 3 5 0 9
-6 9 -6 0 -8 4 -5 10 3 5 1 10 -4 10 -6 0 -11 13 -11 28 0 15 -10 40 -22 55
-17 21 -22 41 -23 88 -1 41 -6 64 -15 71 -12 8 -12 9 2 4 10 -3 23 0 29 7 8 8
38 11 95 8 53 -2 84 1 84 7 0 6 8 9 18 7 9 -2 23 -4 30 -4 7 -1 10 -6 6 -13
-5 -8 3 -9 29 -5 20 3 36 3 36 -1 -3 -18 2 -33 9 -29 12 8 11 -47 -1 -61 -8
-10 -7 -16 2 -22 8 -4 11 -16 7 -28 -9 -28 21 -194 36 -204 16 -9 37 30 22 40
-5 4 -10 36 -10 72 -1 36 -4 102 -7 147 l-5 83 116 -3 c122 -4 178 7 163 32
-6 10 -37 12 -128 9 -91 -2 -124 0 -136 11 -15 11 -17 37 -17 180 0 91 4 172
8 179 7 9 49 12 178 10 l169 -3 3 -67 c3 -66 3 -68 30 -67 56 3 62 8 60 50 -1
21 -6 39 -12 39 -8 0 -8 2 0 8 6 4 13 15 17 25 6 15 21 17 134 16 71 0 137 2
148 6 16 6 17 5 5 -4 -12 -9 -11 -11 10 -12 14 -1 29 -1 34 0 4 1 5 -19 2 -44
-5 -29 -4 -45 3 -45 6 0 11 -7 11 -15 0 -8 9 -15 20 -15 14 0 22 11 29 38 7
24 7 38 1 40 -6 2 -10 8 -10 13 0 6 5 7 10 4 6 -3 10 1 10 10 0 14 16 15 128
13 l127 -3 10 -61 c10 -59 11 -60 29 -43 14 14 17 26 12 56 -4 21 -8 48 -9 61
-1 12 -5 22 -9 22 -4 0 -5 6 -2 14 6 17 -63 197 -80 208 -6 4 -8 8 -3 8 7 0
-16 41 -41 70 -7 8 -38 48 -69 88 -31 40 -66 75 -77 78 -12 3 -29 19 -39 36
-10 17 -20 28 -24 24 -3 -3 -12 3 -20 14 -8 11 -23 20 -33 20 -10 0 -25 8 -32
18 -7 11 -29 22 -49 26 -22 4 -39 13 -41 24 -8 27 -204 95 -279 96 -27 1 -49
4 -49 9 0 9 -241 7 -300 -3z m170 -41 c0 -6 9 -9 19 -6 13 3 25 -4 38 -22 24
-34 66 -168 59 -187 -5 -12 -25 -14 -108 -12 l-103 3 3 29 c2 16 11 40 19 53
9 13 11 23 5 23 -14 0 -43 -41 -36 -52 3 -4 0 -8 -7 -8 -7 0 -10 -3 -6 -6 3
-3 -2 -14 -11 -24 -13 -14 -34 -19 -82 -20 -114 -3 -123 -2 -116 16 3 8 2 13
-3 9 -5 -3 -11 0 -13 7 -3 8 -14 4 -34 -10 -40 -29 -202 -48 -224 -26 -13 13
-11 18 20 45 19 17 58 42 85 56 28 14 58 32 68 41 9 8 17 12 17 7 0 -4 10 -1
23 7 12 8 40 21 62 28 22 7 45 16 50 20 9 6 58 15 185 34 54 7 90 6 90 -5z
m296 -33 c43 -14 82 -22 87 -19 6 3 7 1 3 -5 -4 -7 -2 -13 3 -13 20 -3 26 -5
48 -17 12 -6 28 -10 35 -9 7 2 10 2 5 0 -14 -9 5 -23 30 -23 15 0 23 -3 20 -7
-8 -8 53 -48 69 -45 16 3 25 -38 11 -44 -7 -2 -43 -5 -82 -8 -65 -3 -73 -1
-108 26 -20 17 -43 31 -50 33 -43 11 -58 18 -47 25 8 5 0 11 -19 18 -17 6 -31
8 -31 5 0 -8 60 -62 61 -55 0 4 5 -4 10 -17 7 -17 15 -22 29 -18 11 3 18 1 14
-4 -3 -5 -16 -9 -29 -9 -13 0 -26 -3 -29 -8 -7 -11 -126 -5 -141 8 -8 7 -20
27 -27 46 -7 21 -17 33 -25 30 -7 -3 -13 2 -13 10 0 8 5 12 11 8 11 -6 -33 66
-58 97 -7 9 -10 19 -6 23 14 14 148 -3 229 -28z m-931 -186 c3 -5 3 -15 -1
-21 -6 -11 -23 6 -24 24 0 10 18 9 25 -3z m1232 -16 c-3 -3 -12 -4 -19 -1 -8
3 -5 6 6 6 11 1 17 -2 13 -5z m-717 -14 c0 -5 -5 -10 -11 -10 -5 0 -7 5 -4 10
3 6 8 10 11 10 2 0 4 -4 4 -10z m284 -16 c8 -21 -12 -17 -24 6 -8 16 -8 18 4
14 8 -3 17 -12 20 -20z m529 -6 c23 -12 132 -158 162 -218 31 -62 69 -169 62
-176 -5 -5 -174 -9 -234 -5 -17 1 -23 7 -23 26 0 14 -5 25 -11 25 -6 0 -9 7
-5 15 3 8 1 15 -5 15 -6 0 -8 7 -5 15 3 9 2 23 -3 33 -5 9 -15 36 -22 60 -7
23 -16 42 -20 42 -7 0 -79 143 -79 158 0 12 108 30 140 24 14 -3 33 -9 43 -14z
m-628 2 l73 0 11 -62 c17 -99 33 -287 27 -313 -6 -22 -11 -23 -103 -27 -54 -2
-119 -1 -145 3 -26 3 -55 1 -64 -4 -12 -7 -15 -6 -10 2 4 6 1 11 -8 11 -9 0
-16 3 -17 8 0 4 -2 15 -4 25 -2 9 0 17 5 17 4 0 11 39 15 88 11 139 26 210 47
239 10 12 63 22 86 16 8 -1 47 -3 87 -3z m395 1 c0 -17 -18 -21 -24 -6 -3 9 0
15 9 15 8 0 15 -4 15 -9z m-647 -10 l25 -10 -18 -66 c-10 -37 -23 -103 -29
-148 -7 -45 -15 -98 -19 -117 l-7 -35 -148 -3 -147 -3 -12 27 c-10 22 -10 28
0 32 6 2 12 12 12 23 0 10 11 43 24 74 14 30 23 55 20 55 -3 0 2 7 10 16 9 8
16 22 16 30 0 14 27 63 41 74 3 3 9 15 13 27 4 12 15 24 24 26 32 9 171 7 195
-2z m654 -81 c70 -115 130 -296 101 -304 -60 -16 -99 -22 -103 -16 -7 11 -146
10 -167 -1 -29 -16 -41 15 -53 146 -4 39 -15 110 -26 159 -10 49 -16 93 -13
98 3 5 51 7 107 6 l102 -3 52 -85z m-1162 70 c4 6 49 10 113 10 112 0 155 -6
147 -21 -3 -4 -11 -6 -18 -3 -7 2 -18 -5 -26 -17 -42 -68 -102 -194 -120 -254
-12 -37 -25 -73 -30 -79 -6 -7 -52 -9 -138 -6 l-128 5 2 26 c1 14 20 66 43
115 39 83 66 122 123 183 15 16 18 25 10 28 -7 3 -13 9 -13 15 0 7 5 6 14 -1
10 -8 16 -9 21 -1z m-138 -162 c-3 -8 -6 -5 -6 6 -1 11 2 17 5 13 3 -3 4 -12
1 -19z m1054 -120 c0 -13 2 -31 4 -40 2 -10 -2 -15 -9 -12 -15 6 -20 74 -6 74
6 0 10 -10 11 -22z m399 -44 c0 -8 -5 -12 -10 -9 -6 4 -8 11 -5 16 9 14 15 11
15 -7z m-1539 -67 c-10 -9 -11 -8 -5 6 3 10 9 15 12 12 3 -3 0 -11 -7 -18z
m629 3 c0 -5 -7 -10 -15 -10 -8 0 -15 5 -15 10 0 6 7 10 15 10 8 0 15 -4 15
-10z m936 -11 c3 -6 1 -16 -6 -22 -10 -9 -12 -8 -6 7 5 14 2 17 -9 12 -9 -3
-13 -2 -10 4 8 13 22 13 31 -1z m-1293 -54 c-1 -22 -5 -104 -9 -183 -4 -78
-11 -145 -16 -148 -10 -7 -247 -8 -254 -1 -14 13 -24 186 -14 258 15 125 8
120 163 117 l132 -3 -2 -40z m390 36 c17 -6 19 -22 20 -185 1 -145 -2 -179
-14 -187 -18 -11 -279 -12 -298 0 -16 10 -37 232 -25 260 4 9 8 34 10 56 4 59
19 65 163 64 69 0 134 -4 144 -8z m497 -39 c0 -9 -9 -23 -21 -30 -18 -12 -20
-11 -17 5 2 10 10 17 16 16 7 -2 12 4 12 12 0 8 2 15 5 15 3 0 5 -8 5 -18z
m405 -1 c-3 -6 -11 -11 -17 -11 -6 0 -6 6 2 15 14 17 26 13 15 -4z m-8 -53
c-3 -7 -5 -2 -5 12 0 14 2 19 5 13 2 -7 2 -19 0 -25z m-1397 -323 c41 -2 83
-3 92 -4 11 -1 20 -12 24 -28 3 -16 8 -35 11 -43 3 -8 7 -27 9 -43 6 -47 43
-141 61 -154 9 -7 13 -13 9 -13 -4 0 4 -20 19 -45 46 -80 46 -80 -58 -77 -62
2 -97 8 -108 18 -8 8 -19 12 -22 9 -4 -3 -5 -2 -2 2 3 4 -6 18 -19 32 -27 29
-116 170 -116 184 0 6 -8 16 -17 24 -11 8 -12 11 -3 7 12 -6 13 -5 4 7 -9 12
-34 95 -34 113 0 3 7 6 15 6 8 0 15 5 15 11 0 7 8 9 23 4 12 -4 56 -8 97 -10z
m188 -70 c-3 -14 -1 -25 3 -25 5 0 9 -9 9 -20 0 -11 -6 -20 -14 -20 -18 0 -33
43 -17 48 6 2 11 12 11 23 0 10 3 19 6 19 4 0 4 -11 2 -25z m786 -10 c-4 -8
-8 -15 -10 -15 -2 0 -4 7 -4 15 0 8 4 15 10 15 5 0 7 -7 4 -15z m393 -27 c-3
-7 -5 -2 -5 12 0 14 2 19 5 13 2 -7 2 -19 0 -25z m-397 -35 c0 -13 -4 -21 -10
-18 -6 3 -10 -4 -10 -17 0 -14 -6 -32 -12 -41 -11 -15 -13 -10 -16 34 -1 28 2
57 8 64 17 20 40 7 40 -22z m-760 -16 c0 -8 -7 -14 -15 -14 -11 0 -12 4 -4 14
6 7 13 13 15 13 2 0 4 -6 4 -13z m711 -169 c-8 -23 -8 -35 2 -46 10 -13 9 -14
-10 -4 -22 12 -22 42 0 69 5 7 7 19 4 27 -3 8 -3 17 1 21 12 12 14 -35 3 -67z
m379 45 c0 -2 -8 -13 -19 -24 -18 -20 -18 -20 -16 3 1 13 3 23 4 24 4 3 31 0
31 -3z m-1020 -47 c0 -11 -19 -15 -25 -6 -3 5 1 10 9 10 9 0 16 -2 16 -4z m2
-38 c-7 -7 -12 -8 -12 -2 0 6 3 14 7 17 3 4 9 5 12 2 2 -3 -1 -11 -7 -17z
m-178 -64 c9 -24 7 -31 -8 -31 -8 0 -13 10 -12 24 1 27 11 30 20 7z m256 0 c0
-2 -7 -4 -15 -4 -8 0 -15 4 -15 10 0 5 7 7 15 4 8 -4 15 -8 15 -10z m548 2
c-10 -7 -18 -19 -18 -26 0 -7 -3 -11 -6 -7 -11 11 7 47 24 47 16 -1 16 -2 0
-14z m-518 -25 c0 -5 -11 -8 -25 -8 -14 0 -25 3 -25 8 0 5 11 9 25 9 14 0 25
-4 25 -9z"/>
<path d="M1620 2660 c-13 -8 -12 -10 3 -10 9 0 17 5 17 10 0 12 -1 12 -20 0z"/>
<path d="M1530 1065 c0 -8 4 -15 8 -15 5 0 9 7 9 15 0 8 -4 15 -9 15 -4 0 -8
-7 -8 -15z"/>
</g>
</svg>
